<svg width="1404" height="340" viewBox="0 0 1404 340" fill="none" xmlns="http://www.w3.org/2000/svg">
<path d="M198.2 173.74C198.49 157.92 211.54 145.33 227.36 145.62C234.84 145.76 241.96 148.81 247.22 154.13C251.38 154.1 254.91 155.15 262.82 150.36C260.86 159.95 259.9 164.11 255.72 169.83C255.72 214.5 228.26 236.23 200.4 241.79C181.3 245.6 153.52 239.34 145.55 231.03C149.61 230.71 166.09 228.94 175.62 221.97C167.56 216.66 135.47 197.77 156.56 147.01C166.46 158.57 176.49 166.44 186.67 170.61C193.44 173.39 195.1 173.33 198.2 173.76V173.74Z" fill="#2563EB"/>
<path opacity="0.1" d="M307.38 303.33C302.43 303.33 297.46 301.64 293.39 298.18C284.28 290.45 283.17 276.8 290.9 267.69C308.34 247.15 317.95 221.05 317.95 194.18C317.95 131.46 266.92 80.4299 204.2 80.4299C141.48 80.4299 90.45 131.46 90.45 194.18C90.45 221.05 100.05 247.15 117.5 267.69C125.23 276.8 124.12 290.44 115.01 298.18C105.91 305.91 92.26 304.8 84.52 295.7C60.45 267.35 47.19 231.31 47.19 194.19C47.19 107.62 117.63 37.1799 204.2 37.1799C290.77 37.1799 361.21 107.62 361.21 194.19C361.21 231.31 347.95 267.36 323.88 295.7C319.6 300.74 313.51 303.33 307.38 303.33Z" fill="#2563EB"/>
<path d="M101.01 303.33C94.88 303.33 88.79 300.74 84.51 295.7C60.44 267.35 47.18 231.31 47.18 194.19C47.18 107.62 117.62 37.1799 204.19 37.1799C251.7 37.1799 296.15 58.3499 326.12 95.2599C333.65 104.54 332.24 118.16 322.97 125.69C313.7 133.24 300.08 131.82 292.54 122.54C270.81 95.7899 238.61 80.4399 204.19 80.4399C141.46 80.4399 90.44 131.47 90.44 194.19C90.44 221.06 100.04 247.16 117.49 267.7C125.22 276.81 124.11 290.45 115 298.19C110.93 301.65 105.96 303.34 101.01 303.34V303.33Z" fill="#2563EB"/>
<path d="M495.16 140.77H466.46V224H442.8V140.77H414.1V122.01H495.16V140.77ZM599.588 151.41L577.048 224H559.408C558.475 224 557.681 223.72 557.028 223.16C556.375 222.6 555.861 221.667 555.488 220.36L545.128 184.17C544.615 182.537 544.148 180.927 543.728 179.34C543.355 177.753 543.005 176.143 542.678 174.51C542.351 176.143 541.978 177.777 541.558 179.41C541.185 181.043 540.741 182.677 540.228 184.31L529.728 220.36C529.028 222.787 527.488 224 525.108 224H508.308L485.768 151.41H503.128C504.668 151.41 505.951 151.783 506.978 152.53C508.051 153.23 508.775 154.117 509.148 155.19L516.428 187.74C517.035 190.213 517.571 192.617 518.038 194.95C518.505 197.237 518.925 199.547 519.298 201.88C519.905 199.547 520.535 197.237 521.188 194.95C521.888 192.617 522.635 190.213 523.428 187.74L532.528 155.12C532.901 154.047 533.601 153.16 534.628 152.46C535.655 151.713 536.868 151.34 538.268 151.34H547.928C549.468 151.34 550.751 151.713 551.778 152.46C552.851 153.16 553.575 154.047 553.948 155.12L562.628 187.74C563.328 190.213 564.005 192.617 564.658 194.95C565.358 197.283 565.988 199.64 566.548 202.02C566.921 199.687 567.365 197.353 567.878 195.02C568.391 192.687 568.975 190.26 569.628 187.74L577.328 155.19C577.701 154.117 578.401 153.23 579.428 152.53C580.455 151.783 581.668 151.41 583.068 151.41H599.588ZM629.528 151.41V224H607.828V151.41H629.528ZM631.768 131.53C631.768 133.257 631.418 134.89 630.718 136.43C630.018 137.923 629.062 139.253 627.848 140.42C626.635 141.54 625.212 142.45 623.578 143.15C621.992 143.803 620.288 144.13 618.468 144.13C616.695 144.13 615.038 143.803 613.498 143.15C611.958 142.45 610.582 141.54 609.368 140.42C608.202 139.253 607.268 137.923 606.568 136.43C605.915 134.89 605.588 133.257 605.588 131.53C605.588 129.757 605.915 128.1 606.568 126.56C607.268 125.02 608.202 123.667 609.368 122.5C610.582 121.333 611.958 120.423 613.498 119.77C615.038 119.117 616.695 118.79 618.468 118.79C620.288 118.79 621.992 119.117 623.578 119.77C625.212 120.423 626.635 121.333 627.848 122.5C629.062 123.667 630.018 125.02 630.718 126.56C631.418 128.1 631.768 129.757 631.768 131.53ZM670.633 225.12C667.179 225.12 664.123 224.63 661.463 223.65C658.849 222.623 656.633 221.2 654.812 219.38C653.039 217.513 651.686 215.273 650.753 212.66C649.819 210.047 649.353 207.13 649.353 203.91V166.39H643.193C642.073 166.39 641.116 166.04 640.323 165.34C639.529 164.593 639.133 163.52 639.133 162.12V153.65L650.683 151.41L654.953 133.7C655.513 131.46 657.099 130.34 659.713 130.34H671.053V151.55H697.863L702.203 133.7C702.763 131.46 704.349 130.34 706.963 130.34H718.303V151.55H736.293V166.39H718.303V202.44C718.303 204.12 718.699 205.52 719.493 206.64C720.333 207.713 721.523 208.25 723.063 208.25C723.856 208.25 724.509 208.18 725.023 208.04C725.583 207.853 726.049 207.667 726.423 207.48C726.843 207.247 727.216 207.06 727.543 206.92C727.916 206.733 728.336 206.64 728.803 206.64C729.456 206.64 729.969 206.803 730.343 207.13C730.763 207.41 731.183 207.877 731.603 208.53L738.183 218.82C735.383 220.92 732.233 222.507 728.733 223.58C725.233 224.607 721.616 225.12 717.883 225.12C714.429 225.12 711.373 224.63 708.713 223.65C706.099 222.623 703.883 221.2 702.063 219.38C700.289 217.513 698.936 215.273 698.003 212.66C697.069 210.047 696.603 207.13 696.603 203.91V166.39H671.053V202.44C671.053 204.12 671.449 205.52 672.243 206.64C673.083 207.713 674.273 208.25 675.813 208.25C676.606 208.25 677.259 208.18 677.773 208.04C678.333 207.853 678.799 207.667 679.173 207.48C679.593 207.247 679.966 207.06 680.293 206.92C680.666 206.733 681.086 206.64 681.553 206.64C682.206 206.64 682.719 206.803 683.093 207.13C683.513 207.41 683.933 207.877 684.353 208.53L690.933 218.82C688.133 220.92 684.983 222.507 681.483 223.58C677.983 224.607 674.366 225.12 670.633 225.12ZM790.164 178.99C790.164 177.263 789.931 175.583 789.464 173.95C789.044 172.317 788.321 170.87 787.294 169.61C786.314 168.303 785.007 167.253 783.374 166.46C781.741 165.667 779.757 165.27 777.424 165.27C773.317 165.27 770.097 166.46 767.764 168.84C765.431 171.173 763.891 174.557 763.144 178.99H790.164ZM762.864 191.59C763.564 197.657 765.407 202.067 768.394 204.82C771.381 207.527 775.231 208.88 779.944 208.88C782.464 208.88 784.634 208.577 786.454 207.97C788.274 207.363 789.884 206.687 791.284 205.94C792.731 205.193 794.037 204.517 795.204 203.91C796.417 203.303 797.677 203 798.984 203C800.711 203 802.017 203.63 802.904 204.89L809.204 212.66C806.964 215.227 804.537 217.327 801.924 218.96C799.357 220.547 796.697 221.807 793.944 222.74C791.237 223.627 788.507 224.233 785.754 224.56C783.047 224.933 780.457 225.12 777.984 225.12C772.897 225.12 768.114 224.303 763.634 222.67C759.201 220.99 755.304 218.517 751.944 215.25C748.631 211.983 745.994 207.923 744.034 203.07C742.121 198.217 741.164 192.57 741.164 186.13C741.164 181.277 741.981 176.68 743.614 172.34C745.294 168 747.674 164.197 750.754 160.93C753.881 157.663 757.637 155.073 762.024 153.16C766.457 151.247 771.451 150.29 777.004 150.29C781.811 150.29 786.197 151.037 790.164 152.53C794.177 154.023 797.607 156.193 800.454 159.04C803.347 161.887 805.587 165.387 807.174 169.54C808.807 173.647 809.624 178.313 809.624 183.54C809.624 185.173 809.554 186.503 809.414 187.53C809.274 188.557 809.017 189.373 808.644 189.98C808.271 190.587 807.757 191.007 807.104 191.24C806.497 191.473 805.704 191.59 804.724 191.59H762.864ZM840.783 162.61C843.023 158.69 845.589 155.61 848.483 153.37C851.423 151.13 854.783 150.01 858.563 150.01C861.829 150.01 864.489 150.78 866.543 152.32L865.143 168.28C864.909 169.307 864.513 170.007 863.953 170.38C863.439 170.753 862.716 170.94 861.783 170.94C861.409 170.94 860.919 170.917 860.313 170.87C859.706 170.823 859.076 170.777 858.423 170.73C857.769 170.637 857.093 170.567 856.393 170.52C855.739 170.427 855.133 170.38 854.573 170.38C851.399 170.38 848.856 171.22 846.943 172.9C845.076 174.58 843.489 176.913 842.183 179.9V224H820.483V151.41H833.363C834.436 151.41 835.323 151.503 836.023 151.69C836.769 151.877 837.376 152.18 837.843 152.6C838.356 152.973 838.729 153.487 838.963 154.14C839.243 154.793 839.476 155.587 839.663 156.52L840.783 162.61ZM930.71 139.37C930.29 140.07 929.823 140.607 929.31 140.98C928.843 141.307 928.26 141.47 927.56 141.47C926.767 141.47 925.833 141.073 924.76 140.28C923.687 139.487 922.333 138.623 920.7 137.69C919.113 136.71 917.177 135.823 914.89 135.03C912.65 134.237 909.92 133.84 906.7 133.84C903.667 133.84 900.983 134.26 898.65 135.1C896.363 135.893 894.427 136.99 892.84 138.39C891.3 139.79 890.133 141.447 889.34 143.36C888.547 145.227 888.15 147.257 888.15 149.45C888.15 152.25 888.827 154.583 890.18 156.45C891.58 158.27 893.4 159.833 895.64 161.14C897.927 162.447 900.493 163.59 903.34 164.57C906.233 165.503 909.173 166.483 912.16 167.51C915.193 168.537 918.133 169.703 920.98 171.01C923.873 172.27 926.44 173.88 928.68 175.84C930.967 177.8 932.787 180.203 934.14 183.05C935.54 185.897 936.24 189.397 936.24 193.55C936.24 197.937 935.493 202.067 934 205.94C932.507 209.767 930.313 213.103 927.42 215.95C924.573 218.797 921.05 221.037 916.85 222.67C912.697 224.303 907.96 225.12 902.64 225.12C896.107 225.12 890.18 223.953 884.86 221.62C879.54 219.24 874.99 216.043 871.21 212.03L875.13 205.59C875.503 205.077 875.947 204.657 876.46 204.33C877.02 203.957 877.627 203.77 878.28 203.77C878.887 203.77 879.563 204.027 880.31 204.54C881.103 205.007 881.99 205.613 882.97 206.36C883.95 207.107 885.07 207.923 886.33 208.81C887.59 209.697 889.013 210.513 890.6 211.26C892.233 212.007 894.077 212.637 896.13 213.15C898.183 213.617 900.493 213.85 903.06 213.85C906.28 213.85 909.15 213.407 911.67 212.52C914.19 211.633 916.313 210.397 918.04 208.81C919.813 207.177 921.167 205.24 922.1 203C923.033 200.76 923.5 198.263 923.5 195.51C923.5 192.477 922.8 190.003 921.4 188.09C920.047 186.13 918.25 184.497 916.01 183.19C913.77 181.883 911.203 180.787 908.31 179.9C905.417 178.967 902.477 178.033 899.49 177.1C896.503 176.12 893.563 175 890.67 173.74C887.777 172.48 885.21 170.847 882.97 168.84C880.73 166.833 878.91 164.337 877.51 161.35C876.157 158.317 875.48 154.583 875.48 150.15C875.48 146.603 876.157 143.173 877.51 139.86C878.91 136.547 880.917 133.607 883.53 131.04C886.19 128.473 889.433 126.42 893.26 124.88C897.133 123.34 901.567 122.57 906.56 122.57C912.16 122.57 917.247 123.457 921.82 125.23C926.44 127.003 930.5 129.57 934 132.93L930.71 139.37ZM1001.42 165.69C1001.04 166.203 1000.67 166.6 1000.3 166.88C999.922 167.16 999.409 167.3 998.755 167.3C998.055 167.3 997.285 167.02 996.445 166.46C995.605 165.853 994.555 165.2 993.295 164.5C992.082 163.8 990.565 163.17 988.745 162.61C986.972 162.003 984.779 161.7 982.165 161.7C978.665 161.7 975.585 162.33 972.925 163.59C970.265 164.803 968.025 166.577 966.205 168.91C964.432 171.243 963.079 174.067 962.145 177.38C961.259 180.693 960.815 184.403 960.815 188.51C960.815 192.803 961.305 196.63 962.285 199.99C963.265 203.303 964.642 206.103 966.415 208.39C968.235 210.63 970.405 212.357 972.925 213.57C975.492 214.737 978.362 215.32 981.535 215.32C984.569 215.32 987.065 214.97 989.025 214.27C990.985 213.523 992.595 212.707 993.855 211.82C995.162 210.933 996.235 210.14 997.075 209.44C997.962 208.693 998.825 208.32 999.665 208.32C1000.69 208.32 1001.49 208.717 1002.05 209.51L1005.55 214.06C1004.01 215.973 1002.26 217.607 1000.3 218.96C998.335 220.313 996.212 221.457 993.925 222.39C991.685 223.277 989.329 223.93 986.855 224.35C984.382 224.77 981.862 224.98 979.295 224.98C974.862 224.98 970.732 224.163 966.905 222.53C963.125 220.897 959.835 218.54 957.035 215.46C954.235 212.333 952.042 208.507 950.455 203.98C948.869 199.453 948.075 194.297 948.075 188.51C948.075 183.237 948.799 178.36 950.245 173.88C951.739 169.4 953.885 165.55 956.685 162.33C959.532 159.063 963.009 156.52 967.115 154.7C971.269 152.88 976.029 151.97 981.395 151.97C986.389 151.97 990.775 152.787 994.555 154.42C998.382 156.007 1001.77 158.27 1004.71 161.21L1001.42 165.69ZM1047.58 151.97C1052.76 151.97 1057.43 152.833 1061.58 154.56C1065.73 156.287 1069.28 158.737 1072.22 161.91C1075.16 165.083 1077.4 168.933 1078.94 173.46C1080.53 177.94 1081.32 182.957 1081.32 188.51C1081.32 194.11 1080.53 199.15 1078.94 203.63C1077.4 208.11 1075.16 211.937 1072.22 215.11C1069.28 218.283 1065.73 220.733 1061.58 222.46C1057.43 224.14 1052.76 224.98 1047.58 224.98C1042.35 224.98 1037.64 224.14 1033.44 222.46C1029.29 220.733 1025.74 218.283 1022.8 215.11C1019.86 211.937 1017.6 208.11 1016.01 203.63C1014.47 199.15 1013.7 194.11 1013.7 188.51C1013.7 182.957 1014.47 177.94 1016.01 173.46C1017.6 168.933 1019.86 165.083 1022.8 161.91C1025.74 158.737 1029.29 156.287 1033.44 154.56C1037.64 152.833 1042.35 151.97 1047.58 151.97ZM1047.58 215.25C1054.58 215.25 1059.81 212.917 1063.26 208.25C1066.71 203.537 1068.44 196.98 1068.44 188.58C1068.44 180.133 1066.71 173.553 1063.26 168.84C1059.81 164.127 1054.58 161.77 1047.58 161.77C1044.03 161.77 1040.93 162.377 1038.27 163.59C1035.66 164.803 1033.46 166.553 1031.69 168.84C1029.96 171.127 1028.66 173.95 1027.77 177.31C1026.93 180.623 1026.51 184.38 1026.51 188.58C1026.51 196.98 1028.24 203.537 1031.69 208.25C1035.19 212.917 1040.49 215.25 1047.58 215.25ZM1108.95 167.3C1111.19 162.447 1113.95 158.667 1117.21 155.96C1120.48 153.207 1124.47 151.83 1129.18 151.83C1130.68 151.83 1132.1 151.993 1133.45 152.32C1134.85 152.647 1136.09 153.16 1137.16 153.86L1136.25 163.17C1135.97 164.337 1135.27 164.92 1134.15 164.92C1133.5 164.92 1132.54 164.78 1131.28 164.5C1130.02 164.22 1128.6 164.08 1127.01 164.08C1124.77 164.08 1122.77 164.407 1120.99 165.06C1119.27 165.713 1117.7 166.693 1116.3 168C1114.95 169.26 1113.71 170.847 1112.59 172.76C1111.52 174.627 1110.54 176.773 1109.65 179.2V224H1097.12V153.09H1104.26C1105.62 153.09 1106.55 153.347 1107.06 153.86C1107.58 154.373 1107.93 155.26 1108.11 156.52L1108.95 167.3ZM1192.71 180.81C1192.71 177.917 1192.29 175.28 1191.45 172.9C1190.66 170.473 1189.47 168.397 1187.88 166.67C1186.34 164.897 1184.45 163.543 1182.21 162.61C1179.97 161.63 1177.43 161.14 1174.58 161.14C1168.61 161.14 1163.87 162.89 1160.37 166.39C1156.92 169.843 1154.77 174.65 1153.93 180.81H1192.71ZM1202.79 214.06C1201.25 215.927 1199.41 217.56 1197.26 218.96C1195.11 220.313 1192.8 221.433 1190.33 222.32C1187.9 223.207 1185.38 223.86 1182.77 224.28C1180.16 224.747 1177.57 224.98 1175 224.98C1170.1 224.98 1165.57 224.163 1161.42 222.53C1157.31 220.85 1153.74 218.423 1150.71 215.25C1147.72 212.03 1145.39 208.063 1143.71 203.35C1142.03 198.637 1141.19 193.223 1141.19 187.11C1141.19 182.163 1141.94 177.543 1143.43 173.25C1144.97 168.957 1147.16 165.247 1150.01 162.12C1152.86 158.947 1156.33 156.473 1160.44 154.7C1164.55 152.88 1169.17 151.97 1174.3 151.97C1178.55 151.97 1182.47 152.693 1186.06 154.14C1189.7 155.54 1192.83 157.593 1195.44 160.3C1198.1 162.96 1200.18 166.273 1201.67 170.24C1203.16 174.16 1203.91 178.64 1203.91 183.68C1203.91 185.64 1203.7 186.947 1203.28 187.6C1202.86 188.253 1202.07 188.58 1200.9 188.58H1153.51C1153.65 193.06 1154.26 196.957 1155.33 200.27C1156.45 203.583 1157.99 206.36 1159.95 208.6C1161.91 210.793 1164.24 212.45 1166.95 213.57C1169.66 214.643 1172.69 215.18 1176.05 215.18C1179.18 215.18 1181.86 214.83 1184.1 214.13C1186.39 213.383 1188.35 212.59 1189.98 211.75C1191.61 210.91 1192.97 210.14 1194.04 209.44C1195.16 208.693 1196.12 208.32 1196.91 208.32C1197.94 208.32 1198.73 208.717 1199.29 209.51L1202.79 214.06ZM1217.11 216.3C1217.11 215.087 1217.32 213.943 1217.74 212.87C1218.21 211.797 1218.82 210.863 1219.56 210.07C1220.36 209.277 1221.29 208.647 1222.36 208.18C1223.44 207.713 1224.58 207.48 1225.79 207.48C1227.01 207.48 1228.15 207.713 1229.22 208.18C1230.3 208.647 1231.23 209.277 1232.02 210.07C1232.82 210.863 1233.45 211.797 1233.91 212.87C1234.38 213.943 1234.61 215.087 1234.61 216.3C1234.61 217.56 1234.38 218.727 1233.91 219.8C1233.45 220.827 1232.82 221.737 1232.02 222.53C1231.23 223.323 1230.3 223.93 1229.22 224.35C1228.15 224.817 1227.01 225.05 1225.79 225.05C1224.58 225.05 1223.44 224.817 1222.36 224.35C1221.29 223.93 1220.36 223.323 1219.56 222.53C1218.82 221.737 1218.21 220.827 1217.74 219.8C1217.32 218.727 1217.11 217.56 1217.11 216.3ZM1265.46 153.09V224H1253V153.09H1265.46ZM1268.12 130.83C1268.12 132.043 1267.86 133.187 1267.35 134.26C1266.88 135.287 1266.23 136.22 1265.39 137.06C1264.6 137.853 1263.64 138.483 1262.52 138.95C1261.45 139.417 1260.3 139.65 1259.09 139.65C1257.88 139.65 1256.73 139.417 1255.66 138.95C1254.63 138.483 1253.72 137.853 1252.93 137.06C1252.14 136.22 1251.51 135.287 1251.04 134.26C1250.57 133.187 1250.34 132.043 1250.34 130.83C1250.34 129.617 1250.57 128.473 1251.04 127.4C1251.51 126.28 1252.14 125.323 1252.93 124.53C1253.72 123.69 1254.63 123.037 1255.66 122.57C1256.73 122.103 1257.88 121.87 1259.09 121.87C1260.3 121.87 1261.45 122.103 1262.52 122.57C1263.64 123.037 1264.6 123.69 1265.39 124.53C1266.23 125.323 1266.88 126.28 1267.35 127.4C1267.86 128.473 1268.12 129.617 1268.12 130.83ZM1315.82 151.97C1321 151.97 1325.67 152.833 1329.82 154.56C1333.98 156.287 1337.52 158.737 1340.46 161.91C1343.4 165.083 1345.64 168.933 1347.18 173.46C1348.77 177.94 1349.56 182.957 1349.56 188.51C1349.56 194.11 1348.77 199.15 1347.18 203.63C1345.64 208.11 1343.4 211.937 1340.46 215.11C1337.52 218.283 1333.98 220.733 1329.82 222.46C1325.67 224.14 1321 224.98 1315.82 224.98C1310.6 224.98 1305.88 224.14 1301.68 222.46C1297.53 220.733 1293.98 218.283 1291.04 215.11C1288.1 211.937 1285.84 208.11 1284.25 203.63C1282.71 199.15 1281.94 194.11 1281.94 188.51C1281.94 182.957 1282.71 177.94 1284.25 173.46C1285.84 168.933 1288.1 165.083 1291.04 161.91C1293.98 158.737 1297.53 156.287 1301.68 154.56C1305.88 152.833 1310.6 151.97 1315.82 151.97ZM1315.82 215.25C1322.82 215.25 1328.05 212.917 1331.5 208.25C1334.96 203.537 1336.68 196.98 1336.68 188.58C1336.68 180.133 1334.96 173.553 1331.5 168.84C1328.05 164.127 1322.82 161.77 1315.82 161.77C1312.28 161.77 1309.17 162.377 1306.51 163.59C1303.9 164.803 1301.71 166.553 1299.93 168.84C1298.21 171.127 1296.9 173.95 1296.01 177.31C1295.17 180.623 1294.75 184.38 1294.75 188.58C1294.75 196.98 1296.48 203.537 1299.93 208.25C1303.43 212.917 1308.73 215.25 1315.82 215.25Z" fill="#2563EB"/>
</svg>
